<svg width="139" height="40" viewBox="0 0 139 40" fill="none" xmlns="http://www.w3.org/2000/svg">
<path d="M37.6142 7.06789H53.2779L51.2343 20.1124H45.6999L47.1724 10.2974H42.5647L41.1049 20.1124H35.5706L37.6142 7.06789Z" fill="white"/>
<path d="M72.1252 7.06789H87.7889L85.7452 20.1124H80.2109L81.6833 10.2974H77.0756L75.6159 20.1124H70.0815L72.1252 7.06789Z" fill="white"/>
<path d="M89.4187 7.06789H105.082L103.039 20.1124H97.5044L98.9769 10.2974H94.3691L92.9094 20.1124H87.3751L89.4187 7.06789Z" fill="white"/>
<path d="M121.023 22.8226L123.955 7.06789H129.362L129.274 8.13171H129.248C129.629 7.81932 130.226 7.51537 131.038 7.21986C131.859 6.92436 132.883 6.7766 134.11 6.7766C135.794 6.7766 137.084 7.24519 137.981 8.18237C138.878 9.11955 139.183 10.4915 138.895 12.2984L138.502 14.502C138.206 16.3932 137.457 17.8328 136.255 18.8206C135.053 19.8 133.636 20.2897 132.003 20.2897C130.903 20.2897 129.997 20.2264 129.286 20.0997C128.584 19.9731 127.975 19.7662 127.458 19.4792L126.519 22.8226H121.023ZM128.106 15.8951C128.25 16.0977 128.525 16.2666 128.931 16.4017C129.345 16.5283 129.853 16.5916 130.454 16.5916C131.233 16.5916 131.825 16.4819 132.231 16.2624C132.637 16.0344 132.853 15.6882 132.878 15.2239L133.45 11.9944C133.492 11.4878 133.323 11.1248 132.942 10.9053C132.57 10.6773 131.994 10.5633 131.216 10.5633C130.623 10.5633 130.111 10.6309 129.68 10.7659C129.248 10.8926 128.935 11.0783 128.74 11.3232L128.106 15.8951Z" fill="white"/>
<path d="M34.7258 24.3593H40.2601L39.5873 28.9565H44.2712L44.9567 24.3593H50.491L48.4474 37.4038H42.913L43.5858 32.7559H38.9019L38.2165 37.4038H32.6821L34.7258 24.3593Z" fill="white"/>
<path d="M69.0844 24.3593H74.6187L73.946 28.9565H78.6298L79.3153 24.3593H84.8496L82.806 37.4038H77.2716L77.9444 32.7559H73.2605L72.5751 37.4038H67.0407L69.0844 24.3593Z" fill="white"/>
<path d="M109.599 37.9605C107.466 38.069 105.334 37.598 104.166 37.3278C103.007 37.0576 102.546 36.0571 102.783 34.3263L102.923 33.5917H107.619C107.619 33.5917 107.371 34.15 107.492 34.4782C107.559 34.6598 107.775 34.8195 108.021 34.9421C108.261 35.0622 108.766 35.1418 109.405 35.1223C110.071 35.1019 110.797 34.9468 111.084 34.8202C111.381 34.6851 111.563 34.3432 111.63 33.7944C111.706 33.0176 111.524 32.5659 111.084 32.4393C110.644 32.3126 110.073 32.2451 109.371 32.2366H106.896L107.34 29.2984H110.018C110.594 29.2984 111.101 29.1887 111.541 28.9692C111.981 28.7412 112.231 28.395 112.29 27.9307C112.341 27.517 112.256 27.2468 112.036 27.1201C111.816 26.9935 111.423 26.9302 110.856 26.9302C109.891 26.9302 109.24 26.9513 108.901 26.9935C108.563 27.0357 108.385 27.2046 108.368 27.5001L108.266 28.108H103.824L103.963 27.2594C104.133 26.1703 104.869 25.3682 106.172 24.8532C107.484 24.3381 109.341 24.0806 111.744 24.0806C113.725 24.0806 115.239 24.3466 116.289 24.8785C117.338 25.402 117.757 26.183 117.545 27.2214C117.418 28.3275 116.995 29.138 116.276 29.653C115.565 30.1681 114.554 30.5311 113.242 30.7422V30.7802C114.562 30.9153 115.574 31.2488 116.276 31.7807C116.987 32.3042 117.27 33.178 117.127 34.4023C116.915 35.2466 116.255 36.0107 115.146 36.6945C114.038 37.3784 111.819 37.8477 109.599 37.9605Z" fill="white"/>
<path fill-rule="evenodd" clip-rule="evenodd" d="M95.0475 40L95.6314 37.4038H89.6401L89.0435 40H83.6615L84.9055 33.6297H85.7849C85.9467 33.3283 86.0936 32.9442 86.2256 32.4772C86.4202 31.8187 86.6064 31.063 86.7841 30.2103L87.6726 24.3593H102.156L100.703 33.6297H101.686L100.43 40H95.0475ZM91.0618 30.6662L91.468 27.5887H96.0376L95.1314 33.6297H90.3576C90.4512 33.4108 90.5463 33.1111 90.6429 32.7305C90.8037 32.0973 90.9433 31.4092 91.0618 30.6662Z" fill="white"/>
<path fill-rule="evenodd" clip-rule="evenodd" d="M122.978 37.4038H117.431L120.137 32.694C119.894 32.5347 119.694 32.3442 119.538 32.1226C119.021 31.3712 118.873 30.2609 119.093 28.7919C119.339 27.2046 119.902 26.069 120.782 25.3851C121.662 24.7012 122.715 24.3593 123.942 24.3593H134.63L132.587 37.4038H126.913L127.535 33.2878H125.249L122.978 37.4038ZM127.953 30.8562H124.526C124.459 30.8562 124.425 30.7338 124.425 30.4889C124.425 30.2441 124.484 29.6995 124.602 28.8552C124.721 28.0362 124.814 27.5043 124.882 27.2594C124.958 27.0146 125.025 26.8922 125.085 26.8922H128.525L127.953 30.8562Z" fill="white"/>
<path fill-rule="evenodd" clip-rule="evenodd" d="M53.6892 14.4893L54.07 12.3743C54.3493 10.5675 55.3013 9.17443 56.926 8.19503C58.5508 7.2072 60.5437 6.71328 62.9046 6.71328C65.4602 6.71328 67.2923 7.24941 68.4009 8.32168C69.5095 9.39395 69.9156 10.8799 69.6195 12.7796L69.4037 14.1727H59.1414L58.9951 15.0592C58.9443 15.5911 59.1474 16.0006 59.6043 16.2877C60.0698 16.5748 60.7594 16.7183 61.6734 16.7183C62.2234 16.7183 62.7185 16.617 63.1585 16.4143C63.607 16.2033 63.9667 15.798 64.2374 15.1985L69.1625 15.8191C68.5786 17.3642 67.6139 18.5082 66.2684 19.2512C64.9314 19.9942 63.1543 20.3657 60.9372 20.3657C58.4662 20.3657 56.5621 19.8887 55.2251 18.9346C53.8965 17.9805 53.3846 16.4988 53.6892 14.4893ZM64.5294 12.387L64.3644 12.6403H59.3944L59.5282 11.8298C59.5705 11.4329 59.8286 11.0868 60.3025 10.7913C60.7764 10.4958 61.3518 10.348 62.0288 10.348C63.2558 10.348 63.9878 10.5169 64.2248 10.8546C64.4617 11.1839 64.5632 11.6947 64.5294 12.387Z" fill="white"/>
<path d="M50.0772 37.4038L52.1209 24.3593H57.706L57.084 30.033C57.0616 30.1538 57.0379 30.2759 57.0131 30.3991C57.0686 30.2633 57.1472 30.1159 57.249 29.957L62.0725 24.3593H67.4545L65.4109 37.4038H59.8131L60.4478 31.692C60.4714 31.5835 60.4924 31.475 60.5107 31.3665C60.4555 31.4811 60.3753 31.6149 60.27 31.768L55.4592 37.4038H50.0772Z" fill="white"/>
<path fill-rule="evenodd" clip-rule="evenodd" d="M105.494 14.4893L105.874 12.3743C106.154 10.5675 107.106 9.17443 108.73 8.19503C110.355 7.2072 112.348 6.71328 114.709 6.71328C117.265 6.71328 119.097 7.24941 120.205 8.32168C121.314 9.39395 121.72 10.8799 121.424 12.7796L121.208 14.1727H110.946L110.8 15.0592C110.749 15.5911 110.952 16.0006 111.409 16.2877C111.874 16.5748 112.564 16.7183 113.478 16.7183C114.028 16.7183 114.523 16.617 114.963 16.4143C115.411 16.2033 115.771 15.798 116.042 15.1985L120.967 15.8191C120.383 17.3642 119.418 18.5082 118.073 19.2512C116.736 19.9942 114.959 20.3657 112.742 20.3657C110.271 20.3657 108.367 19.8887 107.03 18.9346C105.701 17.9805 105.189 16.4988 105.494 14.4893ZM116.334 12.387L116.169 12.6403H111.199L111.333 11.8298C111.375 11.4329 111.633 11.0868 112.107 10.7913C112.581 10.4958 113.156 10.348 113.833 10.348C115.06 10.348 115.792 10.5169 116.029 10.8546C116.266 11.1839 116.368 11.6947 116.334 12.387Z" fill="white"/>
<path fill-rule="evenodd" clip-rule="evenodd" d="M27.7414 10.7369C30.7443 14.3345 30.8588 21.7768 27.0761 28.0549C22.247 36.0694 12.5892 40.2446 0.430241 38.8623C-0.0990758 38.8021 -0.153833 37.953 0.343161 37.7616C4.49536 36.1623 9.43683 32.6562 11.952 28.7353C14.8772 24.1752 15.2879 21.098 15.7249 17.8233C15.8552 16.8476 15.9877 15.8543 16.1898 14.7991C16.463 13.3729 17.0696 11.7205 18.2678 10.4769C17.6009 11.219 18.8699 10.9552 20.3982 10.6374C21.4425 10.4202 22.6078 10.1779 23.3594 10.2141C24.0206 10.246 24.9908 10.5315 25.8657 10.7888C27.2203 11.1874 28.3462 11.5186 27.7414 10.7369Z" fill="#FF282E"/>
<path d="M24.5434 4.57997C22.6204 0.967812 18.6172 -1.31369 18.8114 0.828968C18.96 2.46941 20.7646 0.708872 21.7249 4.11317C22.4898 6.82448 19.3577 9.43591 18.4267 10.3155C18.3724 10.3668 18.3251 10.4145 18.2843 10.4587L18.2798 10.4636C18.2758 10.468 18.2719 10.4723 18.268 10.4766L18.2678 10.4769C17.6009 11.219 18.8699 10.9552 20.3982 10.6374C21.4425 10.4202 22.6078 10.1779 23.3594 10.2141C24.0206 10.246 24.9908 10.5315 25.8657 10.7888C27.2203 11.1874 28.3462 11.5186 27.7414 10.7369C27.7296 10.7217 27.7172 10.706 27.7041 10.69C25.8142 8.37128 26.255 7.79501 24.5434 4.57997Z" fill="#7F1C1F"/>
</svg>
