<svg width="40" height="32" viewBox="0 0 40 32" fill="none" xmlns="http://www.w3.org/2000/svg">
<g clip-path="url(#clip0_622_6142)">
<path fill-rule="evenodd" clip-rule="evenodd" d="M6 32C4.4087 32 2.88258 31.3679 1.75736 30.2426C0.632141 29.1174 0 27.5913 0 26V6C0 4.4087 0.632141 2.88258 1.75736 1.75736C2.88258 0.632141 4.4087 0 6 0H34C35.5913 0 37.1174 0.632141 38.2426 1.75736C39.3679 2.88258 40 4.4087 40 6V26C40 27.5913 39.3679 29.1174 38.2426 30.2426C37.1174 31.3679 35.5913 32 34 32H6ZM11.25 8.44C11.0463 8.26604 10.8097 8.13477 10.5542 8.054C10.2988 7.97324 10.0297 7.94461 9.76302 7.96983C9.49631 7.99504 9.23738 8.07359 9.00161 8.20079C8.76584 8.328 8.55802 8.50128 8.3905 8.71034C8.22298 8.9194 8.09917 9.15999 8.02642 9.41783C7.95367 9.67566 7.93346 9.94548 7.96699 10.2113C8.00052 10.4771 8.08711 10.7334 8.22162 10.9651C8.35612 11.1968 8.53581 11.3991 8.75 11.56L16.25 17.562C17.3142 18.414 18.6368 18.8783 20 18.8783C21.3632 18.8783 22.6858 18.414 23.75 17.562L31.25 11.562C31.4551 11.3978 31.6259 11.1949 31.7526 10.9647C31.8793 10.7346 31.9594 10.4817 31.9884 10.2206C32.0174 9.9595 31.9946 9.69523 31.9215 9.4429C31.8483 9.19057 31.7261 8.95512 31.562 8.75C31.3978 8.54488 31.1949 8.37409 30.9647 8.2474C30.7346 8.12071 30.4817 8.04059 30.2206 8.01162C29.9595 7.98264 29.6952 8.00539 29.4429 8.07855C29.1906 8.15171 28.9551 8.27385 28.75 8.438L21.25 14.438C20.8953 14.722 20.4544 14.8768 20 14.8768C19.5456 14.8768 19.1047 14.722 18.75 14.438L11.25 8.44Z" fill="white"/>
</g>
<defs>
<clipPath id="clip0_622_6142">
<rect width="40" height="32" fill="white"/>
</clipPath>
</defs>
</svg>
