<svg width="80" height="80" viewBox="0 0 80 80" fill="none" xmlns="http://www.w3.org/2000/svg">
<path d="M30.8421 30.8421L43.0526 43.0526M52.2105 27.7895L36.9474 43.0526M11 40C11 26.3303 11 19.4924 15.2462 15.2462C19.4924 11 26.3273 11 40 11C53.6697 11 60.5076 11 64.7538 15.2462C69 19.4924 69 26.3273 69 40C69 53.6697 69 60.5076 64.7538 64.7538C60.5076 69 53.6727 69 40 69C26.3303 69 19.4924 69 15.2462 64.7538C11 60.5076 11 53.6727 11 40Z" stroke="white" stroke-width="4" stroke-linecap="square"/>
</svg>
