<svg width="32" height="32" viewBox="0 0 32 32" fill="none" xmlns="http://www.w3.org/2000/svg">
<g clip-path="url(#clip0_622_6138)">
<path d="M12.652 0.00579291L13.624 0.00179291H18.376L19.3493 0.00579291L20.568 0.0191262L21.1453 0.0284596L21.7027 0.0431262L22.24 0.0617929L22.7573 0.0831262L23.256 0.111126L23.736 0.14446L24.196 0.18446L24.64 0.22846C26.96 0.489793 28.5507 1.04979 29.7507 2.24979C30.9507 3.44979 31.5107 5.03913 31.772 7.36046L31.8173 7.80446L31.856 8.26579L31.8893 8.74579L31.916 9.24313L31.9493 10.0271L31.9653 10.5738L31.9827 11.4325L31.9947 12.6525L32 13.9591L31.9987 18.3765L31.9947 19.3498L31.9813 20.5685L31.972 21.1458L31.9573 21.7031L31.9387 22.2405L31.9173 22.7578L31.8893 23.2565L31.856 23.7365L31.816 24.1965L31.772 24.6405C31.5107 26.9605 30.9507 28.5511 29.7507 29.7511C28.5507 30.9511 26.9613 31.5111 24.64 31.7725L24.196 31.8178L23.7347 31.8565L23.2547 31.8898L22.7573 31.9165L21.9733 31.9498L21.4267 31.9658L20.568 31.9831L19.348 31.9951L18.0413 32.0005L13.624 31.9991L12.6507 31.9951L11.432 31.9818L10.8547 31.9725L10.2973 31.9578L9.76 31.9391L9.24267 31.9178L8.744 31.8898L8.264 31.8565L7.804 31.8165L7.36 31.7725C5.04 31.5111 3.44933 30.9511 2.24933 29.7511C1.04933 28.5511 0.489333 26.9618 0.228 24.6405L0.182667 24.1965L0.144 23.7351L0.110667 23.2551L0.084 22.7578L0.0506667 21.9738L0.0346667 21.4271L0.0173333 20.5685L0.00533333 19.3485L0 18.0418L0.00133333 13.6245L0.00533333 12.6511L0.0186667 11.4325L0.028 10.8551L0.0426667 10.2978L0.0613333 9.76046L0.0826667 9.24313L0.110667 8.74446L0.144 8.26446L0.184 7.80446L0.228 7.36046C0.489333 5.04046 1.04933 3.44979 2.24933 2.24979C3.44933 1.04979 5.03867 0.489793 7.36 0.22846L7.804 0.183126L8.26533 0.14446L8.74533 0.111126L9.24267 0.0844596L10.0267 0.0511262L10.5733 0.0351262L11.432 0.0177929L12.652 0.00579291ZM9.05333 9.73379H5.4C5.57333 18.0538 9.73334 23.0538 17.0267 23.0538H17.44V18.2938C20.12 18.5605 22.1467 20.5205 22.96 23.0538H26.7467C25.7067 19.2671 22.9733 17.1738 21.2667 16.3738C22.9733 15.3871 25.3733 12.9871 25.9467 9.73379H22.5067C21.76 12.3738 19.5467 14.7738 17.44 15.0005V9.73379H14V18.9605C11.8667 18.4271 9.17333 15.8405 9.05333 9.73379Z" fill="white"/>
</g>
<defs>
<clipPath id="clip0_622_6138">
<rect width="32" height="32" fill="white"/>
</clipPath>
</defs>
</svg>
