<svg width="32" height="32" viewBox="0 0 32 32" fill="none" xmlns="http://www.w3.org/2000/svg">
<path d="M12.0254 12C11.8892 10.2343 12.2972 8.46926 13.1945 6.94246C14.0918 5.41566 15.4353 4.20039 17.0442 3.46023C18.6531 2.72007 20.45 2.49056 22.1933 2.80257C23.9365 3.11458 25.5424 3.95315 26.7946 5.20541C28.0469 6.45766 28.8854 8.06348 29.1975 9.80673C29.5095 11.55 29.28 13.347 28.5398 14.9558C27.7996 16.5647 26.5844 17.9082 25.0576 18.8055C23.5308 19.7028 21.7657 20.1108 20 19.9747" stroke="white" stroke-width="2" stroke-linecap="round" stroke-linejoin="round"/>
<path d="M29.3334 22.6665C29.3334 23.7274 28.9119 24.7448 28.1618 25.4949C27.4116 26.2451 26.3942 26.6665 25.3334 26.6665H22.6667M22.6667 26.6665L25.3334 23.9998M22.6667 26.6665L25.3334 29.3332M2.66669 9.33317C2.66669 8.2723 3.08811 7.25489 3.83826 6.50474C4.58841 5.7546 5.60582 5.33317 6.66669 5.33317H9.33335M9.33335 5.33317L6.66669 7.99984M9.33335 5.33317L6.66669 2.6665M11.3334 29.3332C9.03481 29.3332 6.83041 28.4201 5.20509 26.7948C3.57978 25.1694 2.66669 22.965 2.66669 20.6665C2.66669 18.368 3.57978 16.1636 5.20509 14.5382C6.83041 12.9129 9.03481 11.9998 11.3334 11.9998C13.6319 11.9998 15.8363 12.9129 17.4616 14.5382C19.0869 16.1636 20 18.368 20 20.6665C20 22.965 19.0869 25.1694 17.4616 26.7948C15.8363 28.4201 13.6319 29.3332 11.3334 29.3332Z" stroke="white" stroke-width="2" stroke-linecap="round" stroke-linejoin="round"/>
</svg>
