<svg width="32" height="32" viewBox="0 0 32 32" fill="none" xmlns="http://www.w3.org/2000/svg">
<path d="M5.33332 15.3333L4.68666 15.4947C4.10975 15.6389 3.5976 15.9718 3.2316 16.4404C2.86559 16.9091 2.66675 17.4867 2.66666 18.0813V20.584C2.66675 21.1787 2.86559 21.7562 3.2316 22.2249C3.5976 22.6936 4.10975 23.0265 4.68666 23.1707L7.00666 23.7507C7.12454 23.78 7.24757 23.7822 7.3664 23.7569C7.48524 23.7316 7.59675 23.6796 7.69249 23.6048C7.78823 23.53 7.86567 23.4344 7.91895 23.3252C7.97223 23.216 7.99995 23.0962 7.99999 22.9747V15.6907C8 15.569 7.97227 15.449 7.91891 15.3397C7.86556 15.2304 7.78798 15.1347 7.69208 15.0599C7.59618 14.9851 7.48448 14.9331 7.36548 14.9079C7.24647 14.8828 7.1233 14.8851 7.00532 14.9147L5.33332 15.3333ZM5.33332 15.3333V14.6667C5.33332 11.8377 6.45713 9.12458 8.45752 7.12419C10.4579 5.12381 13.171 4 16 4C18.829 4 21.5421 5.12381 23.5425 7.12419C25.5428 9.12458 26.6667 11.8377 26.6667 14.6667V15.3333M26.6667 15.3333L27.3133 15.4947C27.8902 15.6389 28.4024 15.9718 28.7684 16.4404C29.1344 16.9091 29.3332 17.4867 29.3333 18.0813V20.584C29.3332 21.1787 29.1344 21.7562 28.7684 22.2249C28.4024 22.6936 27.8902 23.0265 27.3133 23.1707L26.6667 23.3333M26.6667 15.3333L24.9933 14.9147C24.8754 14.8853 24.7524 14.8832 24.6336 14.9085C24.5147 14.9337 24.4032 14.9857 24.3075 15.0605C24.2118 15.1353 24.1343 15.2309 24.081 15.3401C24.0277 15.4493 24 15.5692 24 15.6907V22.9747C24 23.0962 24.0277 23.216 24.081 23.3252C24.1343 23.4344 24.2118 23.53 24.3075 23.6048C24.4032 23.6796 24.5147 23.7316 24.6336 23.7569C24.7524 23.7822 24.8754 23.78 24.9933 23.7507L26.6667 23.3333M26.6667 23.3333V24.6667C26.6667 25.3739 26.3857 26.0522 25.8856 26.5523C25.3855 27.0524 24.7072 27.3333 24 27.3333H20M20 27.3333C20 26.8029 19.7893 26.2942 19.4142 25.9191C19.0391 25.544 18.5304 25.3333 18 25.3333H14C13.4696 25.3333 12.9608 25.544 12.5858 25.9191C12.2107 26.2942 12 26.8029 12 27.3333C12 27.8638 12.2107 28.3725 12.5858 28.7475C12.9608 29.1226 13.4696 29.3333 14 29.3333H18C18.5304 29.3333 19.0391 29.1226 19.4142 28.7475C19.7893 28.3725 20 27.8638 20 27.3333Z" stroke="white" stroke-width="2"/>
</svg>
