<svg width="32" height="32" viewBox="0 0 32 32" fill="none" xmlns="http://www.w3.org/2000/svg">
<path d="M25.3334 21.5002C24.6614 22.8202 23.544 23.9682 22.1214 24.8348L22.768 26.9682C22.8043 27.0877 22.812 27.214 22.7906 27.337C22.7693 27.4601 22.7194 27.5764 22.645 27.6767C22.5706 27.777 22.4738 27.8585 22.3622 27.9147C22.2507 27.9708 22.1276 28.0001 22.0027 28.0002H19.6507C19.4776 28.0002 19.3092 27.944 19.1707 27.8402L17.3107 26.4442H14.0614L12.2014 27.8402C12.0629 27.944 11.8945 28.0002 11.7214 28.0002H9.36937C9.2445 28.0001 9.12136 27.9708 9.00983 27.9147C8.8983 27.8585 8.80147 27.777 8.72708 27.6767C8.6527 27.5764 8.60282 27.4601 8.58146 27.337C8.56009 27.214 8.56783 27.0877 8.60404 26.9682L9.25071 24.8348C6.86404 23.3802 5.33337 21.1322 5.33337 18.6108C5.33337 14.2242 9.96804 10.6668 15.6867 10.6668C16.8454 10.6668 18.2934 11.0642 19.3334 11.3335L25.3334 9.3335L25.2214 14.1708L28 15.3335V20.0002L25.432 21.3335" stroke="white" stroke-width="2" stroke-linecap="round" stroke-linejoin="round"/>
<path d="M20.6667 17.3333C20.4899 17.3333 20.3203 17.2631 20.1953 17.1381C20.0702 17.013 20 16.8435 20 16.6667C20 16.4899 20.0702 16.3203 20.1953 16.1953C20.3203 16.0702 20.4899 16 20.6667 16C20.8435 16 21.013 16.0702 21.1381 16.1953C21.2631 16.3203 21.3333 16.4899 21.3333 16.6667C21.3333 16.8435 21.2631 17.013 21.1381 17.1381C21.013 17.2631 20.8435 17.3333 20.6667 17.3333Z" fill="white" stroke="white" stroke-width="2" stroke-linecap="round" stroke-linejoin="round"/>
<path d="M2.66669 13.3335C2.66669 13.3335 2.66669 16.5335 5.33335 17.3335" stroke="white" stroke-width="2" stroke-linecap="round" stroke-linejoin="round"/>
<path d="M17.0667 10.3373C17.24 9.84133 17.3333 9.308 17.3333 8.75333C17.3333 6.128 15.244 4 12.6667 4C10.0893 4 8 6.128 8 8.75333C8 10.008 8.47733 11.1507 9.25867 12" stroke="white" stroke-width="2" stroke-linejoin="round"/>
</svg>
