<svg width="32" height="32" viewBox="0 0 32 32" fill="none" xmlns="http://www.w3.org/2000/svg">
<path d="M25.3333 26.6668H6.66667C5.95942 26.6668 5.28115 26.3859 4.78105 25.8858C4.28095 25.3857 4 24.7074 4 24.0002V12.0002C4 11.2929 4.28095 10.6146 4.78105 10.1145C5.28115 9.61445 5.95942 9.3335 6.66667 9.3335H25.3333C26.0406 9.3335 26.7189 9.61445 27.219 10.1145C27.719 10.6146 28 11.2929 28 12.0002V24.0002C28 24.7074 27.719 25.3857 27.219 25.8858C26.7189 26.3859 26.0406 26.6668 25.3333 26.6668Z" stroke="white" stroke-width="2"/>
<path d="M22 18.6668C21.8232 18.6668 21.6536 18.5966 21.5286 18.4716C21.4036 18.3465 21.3333 18.177 21.3333 18.0002C21.3333 17.8234 21.4036 17.6538 21.5286 17.5288C21.6536 17.4037 21.8232 17.3335 22 17.3335C22.1768 17.3335 22.3464 17.4037 22.4714 17.5288C22.5964 17.6538 22.6666 17.8234 22.6666 18.0002C22.6666 18.177 22.5964 18.3465 22.4714 18.4716C22.3464 18.5966 22.1768 18.6668 22 18.6668Z" fill="white" stroke="white" stroke-width="2" stroke-linecap="round" stroke-linejoin="round"/>
<path d="M24 9.33328V7.47061C23.9999 7.06195 23.9059 6.65878 23.7252 6.29224C23.5445 5.92569 23.2819 5.60558 22.9578 5.35663C22.6338 5.10767 22.2568 4.93653 21.8561 4.85642C21.4553 4.77632 21.0415 4.78938 20.6467 4.89461L5.98 8.80528C5.41207 8.95662 4.91005 9.29136 4.55199 9.75745C4.19392 10.2235 3.99987 10.7949 4 11.3826V11.9999" stroke="white" stroke-width="2"/>
</svg>
