<svg width="32" height="32" viewBox="0 0 32 32" fill="none" xmlns="http://www.w3.org/2000/svg">
<path d="M19.428 20.0054L20.572 22.4654C20.572 22.4654 25.7147 23.5574 25.7147 26.1547C25.7147 28 23.4267 28 23.4267 28H17.3333L14.3333 26.3334" stroke="white" stroke-width="2" stroke-linecap="round" stroke-linejoin="round"/>
<path d="M12.572 20.0054L11.4293 22.4654C11.4293 22.4654 6.28534 23.5574 6.28534 26.1547C6.28534 28 8.57334 28 8.57334 28H11.3333L14.3333 26.3334L18 24" stroke="white" stroke-width="2" stroke-linecap="round" stroke-linejoin="round"/>
<path d="M4 21.2347C4 21.2347 6.85733 20.62 8.572 20.0053C10.2853 11.3947 15.4267 12.0093 16 12.0093C16.5733 12.0093 21.7147 11.3947 23.428 20.0053C25.1427 20.6187 28 21.2347 28 21.2347M16 9.33333C16.7072 9.33333 17.3855 9.05238 17.8856 8.55229C18.3857 8.05219 18.6667 7.37391 18.6667 6.66667C18.6667 5.95942 18.3857 5.28115 17.8856 4.78105C17.3855 4.28095 16.7072 4 16 4C15.2928 4 14.6145 4.28095 14.1144 4.78105C13.6143 5.28115 13.3333 5.95942 13.3333 6.66667C13.3333 7.37391 13.6143 8.05219 14.1144 8.55229C14.6145 9.05238 15.2928 9.33333 16 9.33333Z" stroke="white" stroke-width="2" stroke-linecap="round" stroke-linejoin="round"/>
</svg>
